<svg width="44" height="45" viewBox="0 0 44 45" fill="none" xmlns="http://www.w3.org/2000/svg">
<path d="M22 44.7742C34.1503 44.7742 44 34.9244 44 22.7742C44 10.6239 34.1503 0.77417 22 0.77417C9.84974 0.77417 0 10.6239 0 22.7742C0 34.9244 9.84974 44.7742 22 44.7742Z" fill="#EC6225"/>
<path d="M25.543 22.7921L18.3962 15.9691C18.2707 15.8498 18.171 15.708 18.103 15.5518C18.035 15.3957 18 15.2282 18 15.0591C18 14.89 18.035 14.7225 18.103 14.5663C18.171 14.4102 18.2707 14.2684 18.3962 14.1491C18.651 13.9089 18.9947 13.7742 19.3527 13.7742C19.7108 13.7742 20.0545 13.9089 20.3092 14.1491L28.4067 21.875C28.6515 22.1094 28.7923 22.425 28.7997 22.7559C28.8071 23.0869 28.6807 23.4079 28.4466 23.6521L20.3126 31.4272C20.0568 31.6552 19.7183 31.7795 19.3685 31.774C19.0186 31.7685 18.6846 31.6337 18.4368 31.3979C18.1889 31.1621 18.0466 30.8437 18.0396 30.5097C18.0327 30.1758 18.1617 29.8522 18.3996 29.6072L25.543 22.7921Z" fill="white"/>
</svg>
