<svg width="220" height="58" viewBox="0 0 220 58" fill="none" xmlns="http://www.w3.org/2000/svg">
<g clip-path="url(#clip0_742_3158)">
<path d="M214.453 52.1776C214.48 51.6021 214.728 51.0592 215.145 50.6615C215.562 50.2639 216.116 50.042 216.692 50.042C217.269 50.042 217.823 50.2639 218.24 50.6615C218.657 51.0592 218.905 51.6021 218.932 52.1776H214.453ZM216.884 56.0975C217.807 56.0976 218.703 55.7886 219.429 55.2198L218.971 54.455C218.381 54.9203 217.651 55.1732 216.9 55.1727C216.292 55.1833 215.702 54.9641 215.249 54.559C214.795 54.1538 214.511 53.5926 214.454 52.9874H219.935C219.942 52.8498 219.942 52.712 219.935 52.5745C219.952 52.1356 219.883 51.6976 219.73 51.2857C219.578 50.8738 219.345 50.4961 219.046 50.1744C218.747 49.8527 218.387 49.5932 217.988 49.4109C217.588 49.2287 217.156 49.1272 216.717 49.1124C215.812 49.1633 214.962 49.5629 214.346 50.2274C213.73 50.8918 213.396 51.7692 213.414 52.675C213.432 53.5808 213.8 54.4443 214.442 55.0839C215.084 55.7235 215.949 56.0894 216.855 56.1045L216.884 56.0975ZM206.155 55.9665H207.21V52.1456C207.205 51.8755 207.254 51.6072 207.355 51.3565C207.455 51.1058 207.605 50.8779 207.795 50.6862C207.986 50.4945 208.213 50.3429 208.463 50.2405C208.713 50.1382 208.981 50.087 209.251 50.0902C210.466 50.0902 210.925 50.755 210.925 52.0006V55.9286H211.972V51.8857C211.972 50.1201 211.208 49.1044 209.541 49.1044C209.079 49.0969 208.624 49.2118 208.221 49.4372C207.819 49.6627 207.483 49.9908 207.248 50.3881V49.2414H206.193L206.155 55.9665ZM201.133 55.0878C200.64 55.0937 200.157 54.953 199.744 54.6834C199.332 54.4139 199.008 54.0277 198.816 53.5741C198.624 53.1205 198.571 52.6199 198.664 52.136C198.757 51.6522 198.991 51.2069 199.338 50.8569C199.685 50.5069 200.128 50.2679 200.611 50.1704C201.095 50.0729 201.596 50.1213 202.051 50.3095C202.507 50.4976 202.896 50.8169 203.17 51.2268C203.443 51.6368 203.588 52.1188 203.587 52.6115C203.595 52.937 203.538 53.2609 203.418 53.5636C203.298 53.8663 203.118 54.1416 202.888 54.373C202.659 54.6043 202.385 54.7869 202.084 54.9098C201.782 55.0326 201.459 55.0931 201.133 55.0878ZM201.133 56.1045C201.938 56.0916 202.714 55.8004 203.329 55.2803C203.944 54.7602 204.359 54.0434 204.505 53.2516C204.651 52.4597 204.519 51.6418 204.13 50.9368C203.741 50.2318 203.12 49.6831 202.372 49.3841C201.624 49.0851 200.796 49.0542 200.028 49.2965C199.26 49.5389 198.599 50.0396 198.159 50.7136C197.718 51.3877 197.525 52.1934 197.611 52.9939C197.698 53.7944 198.059 54.5402 198.633 55.1048C198.963 55.4282 199.354 55.683 199.783 55.8546C200.212 56.0262 200.671 56.1111 201.133 56.1045ZM191.372 58.004C191.914 58.0382 192.453 57.8892 192.9 57.581C193.348 57.2729 193.679 56.8233 193.841 56.3045L197.041 49.2514H195.963L193.963 53.7222C193.856 53.9671 193.65 54.486 193.65 54.486C193.65 54.486 193.497 54.0431 193.344 53.7222L191.234 49.2134H190.141L193.198 55.4947L193.053 55.7946C192.594 56.7653 192.136 56.9713 191.41 56.9713L191.372 58.004ZM186.021 55.9715H187.077V52.7854C187.048 52.4406 187.096 52.0937 187.216 51.7695C187.337 51.4453 187.528 51.1518 187.776 50.9101C188.024 50.6684 188.322 50.4844 188.649 50.3713C188.976 50.2583 189.324 50.2189 189.668 50.2561V49.1174C189.132 49.0799 188.597 49.2059 188.135 49.4789C187.672 49.7518 187.303 50.1588 187.077 50.646V49.2204H186.053L186.021 55.9715ZM179.021 52.1506C179.048 51.5751 179.296 51.0322 179.713 50.6345C180.13 50.2369 180.684 50.015 181.26 50.015C181.837 50.015 182.391 50.2369 182.808 50.6345C183.225 51.0322 183.473 51.5751 183.5 52.1506H179.021ZM181.452 56.0705C182.375 56.0705 183.271 55.7615 183.997 55.1928L183.539 54.428C182.95 54.8944 182.22 55.1474 181.468 55.1458C180.86 55.1563 180.27 54.9371 179.817 54.532C179.363 54.1269 179.08 53.5656 179.022 52.9604H184.51V52.5475C184.527 52.1086 184.458 51.6706 184.305 51.2587C184.153 50.8468 183.92 50.4692 183.621 50.1474C183.322 49.8257 182.962 49.5662 182.563 49.384C182.163 49.2017 181.731 49.1002 181.292 49.0854C180.387 49.1363 179.537 49.536 178.921 50.2004C178.305 50.8648 177.971 51.7422 177.989 52.648C178.007 53.5538 178.375 54.4173 179.017 55.0569C179.659 55.6966 180.524 56.0624 181.43 56.0775L181.452 56.0705ZM173.519 56.0085H174.477L177.435 49.2454H176.373L174.473 53.5322C174.287 53.9708 174.126 54.4197 173.991 54.8768C173.856 54.4198 173.695 53.9708 173.509 53.5322L171.598 49.2454H170.536L173.519 56.0085ZM164.469 52.1876C164.496 51.6121 164.744 51.0692 165.161 50.6715C165.578 50.2739 166.132 50.052 166.708 50.052C167.285 50.052 167.839 50.2739 168.256 50.6715C168.673 51.0692 168.921 51.6121 168.948 52.1876H164.469ZM166.9 56.1075C167.823 56.1072 168.719 55.7978 169.445 55.2287L168.986 54.465C168.396 54.9306 167.666 55.1838 166.915 55.1838C166.307 55.1943 165.717 54.9751 165.264 54.57C164.81 54.1648 164.527 53.6036 164.469 52.9984H169.95C169.957 52.8608 169.957 52.723 169.95 52.5855C169.967 52.1466 169.898 51.7086 169.745 51.2967C169.593 50.8848 169.36 50.5072 169.061 50.1854C168.762 49.8637 168.402 49.6042 168.003 49.4219C167.603 49.2397 167.171 49.1382 166.732 49.1234C165.827 49.1742 164.977 49.5739 164.361 50.2384C163.745 50.9028 163.411 51.7802 163.429 52.686C163.447 53.5917 163.815 54.4553 164.457 55.0949C165.099 55.7345 165.964 56.1004 166.87 56.1155L166.9 56.1075ZM155.756 55.9775H156.803V52.7914C156.775 52.4461 156.824 52.0989 156.945 51.7745C157.067 51.4502 157.259 51.1567 157.508 50.9151C157.756 50.6735 158.055 50.4897 158.382 50.3768C158.71 50.2639 159.058 50.2248 159.403 50.2621V49.1204C158.866 49.0842 158.331 49.2107 157.867 49.4834C157.403 49.7561 157.032 50.1623 156.803 50.649V49.2274H155.756V55.9775ZM150.726 55.0988C150.233 55.1053 149.75 54.9652 149.337 54.6961C148.924 54.4271 148.6 54.0413 148.407 53.5879C148.214 53.1346 148.161 52.634 148.253 52.15C148.345 51.6661 148.58 51.2205 148.926 50.8701C149.273 50.5196 149.716 50.2801 150.199 50.1821C150.682 50.084 151.183 50.1318 151.639 50.3193C152.094 50.5069 152.484 50.8258 152.758 51.2354C153.032 51.6449 153.178 52.1267 153.177 52.6195C153.185 52.9456 153.128 53.2701 153.007 53.5733C152.887 53.8765 152.706 54.1521 152.476 54.3836C152.246 54.615 151.971 54.7974 151.669 54.9198C151.366 55.0422 151.042 55.1021 150.716 55.0958L150.726 55.0988ZM150.716 56.1125C151.521 56.1012 152.298 55.8117 152.913 55.293C153.529 54.7742 153.946 54.0584 154.094 53.267C154.242 52.4757 154.111 51.6576 153.724 50.9518C153.336 50.246 152.717 49.6959 151.97 49.3952C151.223 49.0944 150.395 49.0614 149.626 49.3018C148.858 49.5422 148.196 50.0412 147.754 50.7139C147.312 51.3867 147.116 52.1917 147.2 52.9923C147.284 53.793 147.643 54.5397 148.216 55.1058C148.545 55.4304 148.936 55.6866 149.365 55.8594C149.794 56.0322 150.253 56.1182 150.716 56.1125ZM143.538 55.9745H144.585V50.1202H146.756V49.2564H144.616V48.8515C144.616 47.8048 145.075 47.5449 145.602 47.5449C145.974 47.5573 146.336 47.671 146.649 47.8738L146.993 47.074C146.504 46.786 145.948 46.6306 145.38 46.6231C144.455 46.6231 143.568 47.074 143.568 48.7475V49.2594H142.477V50.1231H143.577L143.538 55.9745ZM137.591 56.1125C138.139 56.1028 138.672 55.9287 139.12 55.6126L138.776 54.8029C138.452 55.0341 138.066 55.1645 137.668 55.1777C137.133 55.1777 136.728 54.9098 136.728 53.9861V50.1202H139.021V49.2564H136.728V47.6139L135.681 47.8048V49.2564H134.681V50.1202H135.69V53.9411C135.69 55.5157 136.39 56.0885 137.59 56.0885L137.591 56.1125ZM128.333 52.1686C128.357 51.5921 128.604 51.0473 129.02 50.648C129.437 50.2487 129.992 50.0258 130.569 50.0258C131.146 50.0258 131.701 50.2487 132.118 50.648C132.534 51.0473 132.781 51.5921 132.805 52.1686H128.333ZM130.764 56.0885C131.685 56.0896 132.579 55.78 133.302 55.2098L132.851 54.446C132.261 54.9117 131.532 55.1649 130.78 55.1648C130.172 55.1753 129.582 54.9561 129.129 54.551C128.675 54.1458 128.391 53.5846 128.334 52.9794H133.815C133.822 52.8418 133.822 52.704 133.815 52.5665C133.832 52.1276 133.763 51.6896 133.61 51.2777C133.458 50.8658 133.225 50.4882 132.926 50.1664C132.627 49.8447 132.267 49.5852 131.868 49.4029C131.468 49.2207 131.036 49.1193 130.597 49.1044C129.692 49.1553 128.842 49.5549 128.226 50.2194C127.61 50.8838 127.276 51.7612 127.294 52.667C127.312 53.5728 127.68 54.4363 128.322 55.0759C128.964 55.7155 129.829 56.0814 130.735 56.0965L130.764 56.0885ZM120.035 55.9585H121.09V52.1376C121.085 51.8675 121.134 51.5992 121.235 51.3485C121.335 51.0978 121.485 50.8699 121.675 50.6782C121.866 50.4865 122.093 50.3349 122.343 50.2325C122.593 50.1302 122.861 50.079 123.131 50.0822C124.346 50.0822 124.805 50.747 124.805 51.9926V55.9185H125.852V51.8837C125.852 50.1182 125.088 49.1024 123.421 49.1024C122.953 49.0881 122.49 49.1997 122.08 49.4255C121.67 49.6513 121.328 49.983 121.09 50.3861V49.2394H120.035V55.9585ZM115.174 55.9585H116.229V52.7724C116.2 52.4277 116.248 52.0807 116.368 51.7565C116.489 51.4323 116.68 51.1389 116.928 50.8971C117.176 50.6554 117.474 50.4714 117.801 50.3583C118.128 50.2453 118.476 50.2059 118.82 50.2431V49.1044C118.284 49.0669 117.749 49.1929 117.287 49.4659C116.824 49.7388 116.455 50.1458 116.229 50.633V49.2114H115.174V55.9585ZM108.174 52.1376C108.201 51.5621 108.449 51.0192 108.866 50.6215C109.283 50.2239 109.837 50.002 110.413 50.002C110.99 50.002 111.544 50.2239 111.961 50.6215C112.378 51.0192 112.626 51.5621 112.653 52.1376H108.174ZM110.605 56.0575C111.528 56.0573 112.424 55.7479 113.15 55.1788L112.691 54.415C112.102 54.8813 111.372 55.1343 110.62 55.1328C110.012 55.1431 109.422 54.9238 108.969 54.5187C108.516 54.1136 108.232 53.5525 108.174 52.9474H113.662V52.5345C113.679 52.0956 113.61 51.6576 113.457 51.2457C113.305 50.8338 113.072 50.4562 112.773 50.1344C112.474 49.8127 112.114 49.5532 111.715 49.371C111.315 49.1887 110.883 49.0872 110.444 49.0724C109.539 49.1233 108.689 49.523 108.073 50.1874C107.457 50.8518 107.123 51.7292 107.141 52.635C107.159 53.5408 107.527 54.4043 108.169 55.0439C108.811 55.6836 109.676 56.0494 110.582 56.0645L110.605 56.0575ZM104.635 56.0645C105.183 56.0562 105.717 55.8819 106.164 55.5647L105.82 54.7549C105.496 54.9874 105.11 55.118 104.712 55.1298C104.177 55.1298 103.779 54.8618 103.779 53.9381V50.0712H106.072V49.2074H103.779V47.5649L102.724 47.7558V49.2074H101.715V50.0712H102.724V53.8921C102.724 55.4667 103.424 56.0395 104.624 56.0395L104.635 56.0645ZM94.9009 55.9015H95.9479V52.0806C95.9428 51.8099 95.9922 51.5409 96.0933 51.2896C96.1944 51.0384 96.345 50.8101 96.5362 50.6183C96.7274 50.4265 96.9553 50.2751 97.2062 50.1732C97.4572 50.0713 97.7261 50.021 97.9969 50.0252C99.2119 50.0252 99.6629 50.69 99.6629 51.9357V55.8636H100.718V51.8827C100.718 50.1172 99.9539 49.1014 98.2869 49.1014C97.8181 49.0881 97.3542 49.2 96.9431 49.4257C96.5319 49.6513 96.1884 49.9825 95.9479 50.3851V49.2384H94.9009V55.9015ZM92.6079 47.9767C92.6993 47.9783 92.79 47.9617 92.8749 47.9279C92.9598 47.894 93.037 47.8436 93.1022 47.7796C93.1674 47.7156 93.2191 47.6392 93.2544 47.5549C93.2897 47.4707 93.3079 47.3803 93.3079 47.2889C93.3079 47.1033 93.2342 46.9253 93.1029 46.7941C92.9716 46.6629 92.7936 46.5891 92.6079 46.5891C92.4244 46.5923 92.2494 46.6674 92.1207 46.7983C91.992 46.9292 91.9199 47.1054 91.9199 47.2889C91.9188 47.3796 91.9359 47.4695 91.9701 47.5534C92.0043 47.6373 92.0549 47.7136 92.119 47.7777C92.1832 47.8418 92.2594 47.8924 92.3434 47.9266C92.4273 47.9608 92.5173 47.9778 92.6079 47.9767ZM92.0879 55.9015H93.1349V49.1844H92.0769L92.0879 55.9015ZM84.2149 55.9015H85.2619V52.7194C85.234 52.3741 85.2827 52.0269 85.4045 51.7026C85.5263 51.3782 85.7183 51.0848 85.9666 50.8432C86.215 50.6015 86.5136 50.4177 86.8412 50.3049C87.1689 50.192 87.5174 50.1528 87.8619 50.1901V49.0514C87.3251 49.0152 86.7897 49.1417 86.3259 49.4144C85.862 49.6871 85.4912 50.0934 85.2619 50.58V49.1584H84.2149V55.9015ZM77.2149 52.0806C77.2393 51.5041 77.4856 50.9593 77.9022 50.56C78.3189 50.1607 78.8738 49.9378 79.4509 49.9378C80.0281 49.9378 80.583 50.1607 80.9996 50.56C81.4163 50.9593 81.6625 51.5041 81.6869 52.0806H77.2149ZM79.6459 56.0005C80.5663 56.0006 81.4599 55.6911 82.1829 55.1218L81.7329 54.357C81.1426 54.8217 80.4133 55.0748 79.6619 55.0758C79.0539 55.0863 78.4642 54.8671 78.0108 54.462C77.5574 54.0569 77.2735 53.4956 77.2159 52.8904H82.6969C82.7041 52.7529 82.7041 52.615 82.6969 52.4775C82.7143 52.0386 82.6447 51.6007 82.4922 51.1888C82.3397 50.7769 82.1072 50.3992 81.8081 50.0774C81.509 49.7557 81.1493 49.4962 80.7496 49.314C80.3498 49.1317 79.918 49.0303 79.4789 49.0154C78.5742 49.0663 77.7244 49.466 77.1084 50.1304C76.4923 50.7948 76.1581 51.6722 76.176 52.578C76.1939 53.4838 76.5625 54.3473 77.2042 54.9869C77.846 55.6266 78.7109 55.9924 79.6169 56.0075L79.6459 56.0005ZM73.6629 56.0075C74.2109 55.996 74.743 55.822 75.1919 55.5077L74.9239 54.7819C74.5995 55.0131 74.2141 55.1435 73.8159 55.1568C73.2809 55.1568 72.8759 54.8888 72.8759 53.9651V50.0982H75.1689V49.2344H72.8759V47.5919L71.8289 47.7828V49.2344H70.8199V50.0982H71.8669V53.9191C71.8669 55.4937 72.5669 56.0665 73.7549 56.0665L73.6629 56.0075ZM68.7179 56.0665C69.2664 56.0583 69.7995 55.884 70.2469 55.5667L69.9029 54.7569C69.5818 54.9886 69.1988 55.1191 68.8029 55.1318C68.2599 55.1318 67.8629 54.8639 67.8629 53.9401V50.0732H70.1559V49.2204H67.8629V47.5779L66.8079 47.7688V49.2204H65.8079V50.0842H66.8079V53.9051C66.8079 55.4797 67.5189 56.0525 68.7079 56.0525L68.7179 56.0665ZM59.4589 52.1326C59.4833 51.5561 59.7296 51.0113 60.1462 50.612C60.5629 50.2127 61.1178 49.9898 61.6949 49.9898C62.2721 49.9898 62.827 50.2127 63.2436 50.612C63.6603 51.0113 63.9065 51.5561 63.9309 52.1326H59.4589ZM61.8899 56.0525C62.8103 56.0526 63.7039 55.743 64.4269 55.1738L63.9689 54.409C63.3796 54.8754 62.6496 55.1284 61.8979 55.1268C61.2908 55.1369 60.7023 54.9174 60.2502 54.5121C59.7981 54.1069 59.5158 53.5458 59.4599 52.9414H64.9409V52.5285C64.9583 52.0896 64.8887 51.6516 64.7362 51.2397C64.5837 50.8279 64.3512 50.4502 64.0521 50.1284C63.753 49.8067 63.3933 49.5472 62.9936 49.365C62.5938 49.1827 62.162 49.0813 61.7229 49.0665C60.8178 49.1177 59.9679 49.518 59.3522 50.1832C58.7364 50.8483 58.4028 51.7263 58.4216 52.6324C58.4404 53.5385 58.8101 54.402 59.4529 55.041C60.0957 55.6801 60.9615 56.0448 61.8679 56.0585L61.8899 56.0525ZM53.7199 55.0418C53.223 55.0725 52.7283 54.9531 52.3 54.6992C51.8717 54.4453 51.5296 54.0686 51.3181 53.618C51.1067 53.1674 51.0355 52.6636 51.1139 52.172C51.1924 51.6805 51.4168 51.2238 51.758 50.8613C52.0992 50.4988 52.5415 50.2472 53.0275 50.1391C53.5136 50.031 54.0209 50.0715 54.4836 50.2552C54.9464 50.4389 55.3433 50.7574 55.6227 51.1693C55.9022 51.5813 56.0514 52.0677 56.0509 52.5655C56.0686 52.883 56.0214 53.2008 55.9124 53.4996C55.8034 53.7984 55.6347 54.0719 55.4167 54.3035C55.1987 54.5351 54.9359 54.72 54.6442 54.8469C54.3525 54.9738 54.038 55.0401 53.7199 55.0418ZM53.9489 56.0585C54.8135 55.9683 55.614 55.5611 56.196 54.9154C56.7779 54.2698 57.0999 53.4315 57.0999 52.5625C57.0999 51.6934 56.7779 50.8552 56.196 50.2095C55.614 49.5639 54.8135 49.1567 53.9489 49.0665C53.4502 49.0396 52.9533 49.1466 52.5099 49.3763C52.0664 49.6061 51.6925 49.9502 51.4269 50.3731V46.843H50.3569V55.9185H51.3569V54.7879C51.6285 55.2158 52.0102 55.5628 52.462 55.7927C52.9138 56.0226 53.419 56.1268 53.9249 56.0945" fill="#848585"/>
<path d="M169.745 28.6491C169.462 30.1777 169.187 31.7483 168.927 33.2949C168.897 33.4344 168.903 33.5793 168.944 33.7159C168.985 33.8525 169.061 33.9763 169.163 34.0757C169.266 34.1751 169.392 34.2468 169.53 34.2841C169.667 34.3213 169.812 34.3229 169.951 34.2886C170.226 34.256 170.482 34.1333 170.68 33.9398C170.877 33.7463 171.006 33.4928 171.044 33.2189C171.128 32.844 171.182 32.4551 171.244 32.0802C171.458 30.8805 171.672 29.6729 171.863 28.5732C171.863 27.9314 171.55 27.6105 171.015 27.5875H170.969C170.672 27.588 170.384 27.6956 170.16 27.8906C169.935 28.0856 169.788 28.3548 169.746 28.6491H169.745ZM185.246 21.963C184.646 22.1689 184.482 22.6628 184.375 23.2397C184.039 25.2341 183.675 27.2285 183.328 29.223C183.093 30.5373 182.86 31.8493 182.628 33.1589C182.552 33.6178 182.559 34.0527 183.094 34.2516C183.333 34.3214 183.589 34.308 183.82 34.2136C184.05 34.1192 184.242 33.9493 184.363 33.7318C184.481 33.492 184.556 33.2335 184.585 32.968L185.663 26.8547C185.9 25.487 186.137 24.1264 186.374 22.7898C186.391 22.6803 186.383 22.5686 186.352 22.4623C186.321 22.3559 186.268 22.2576 186.195 22.1741C186.122 22.0905 186.032 22.0237 185.931 21.9783C185.83 21.9329 185.721 21.9099 185.61 21.911C185.493 21.9111 185.377 21.929 185.266 21.964L185.246 21.963ZM207.922 21.895C206.897 22.1117 205.958 22.6244 205.222 23.3696C205.061 23.4996 204.954 23.7365 204.641 23.6755L204.786 22.9567C204.844 22.7992 204.848 22.627 204.799 22.4668C204.749 22.3065 204.648 22.167 204.511 22.07C204.377 21.9717 204.218 21.9144 204.052 21.905C203.887 21.8956 203.722 21.9345 203.578 22.017C203.384 22.1006 203.215 22.2347 203.09 22.4054C202.965 22.5761 202.888 22.7772 202.867 22.9877C202.271 26.4061 201.671 29.8245 201.067 33.2429C201.015 33.3999 201.011 33.5691 201.056 33.7285C201.1 33.8879 201.192 34.0301 201.319 34.1366C201.471 34.2411 201.651 34.297 201.835 34.297C202.019 34.297 202.199 34.2411 202.351 34.1366C202.526 34.0371 202.674 33.8968 202.783 33.7279C202.892 33.5589 202.959 33.3661 202.978 33.1659C203.406 30.7356 203.842 28.3132 204.27 25.8839C204.287 25.7023 204.362 25.531 204.484 25.395C205.318 24.4538 206.486 23.8731 207.74 23.7755C208.091 23.7644 208.423 23.6161 208.665 23.3626C208.829 23.227 208.943 23.041 208.99 22.8336C209.038 22.6261 209.015 22.4089 208.925 22.2159C208.869 22.0914 208.776 21.9875 208.658 21.919C208.54 21.8504 208.404 21.8207 208.268 21.834C208.154 21.8231 208.038 21.8231 207.924 21.834L207.922 21.895ZM214.039 21.834C212.29 22.2159 210.731 23.199 209.634 24.6121C208.536 26.0252 207.969 27.7787 208.031 29.5669C207.995 30.5531 208.279 31.5245 208.839 32.3368C209.4 33.1491 210.207 33.7589 211.142 34.0757C212.252 34.3794 213.414 34.4452 214.551 34.2688C215.689 34.0923 216.776 33.6777 217.742 33.0519C217.936 32.9262 218.075 32.7319 218.132 32.508C218.189 32.2841 218.159 32.0471 218.048 31.8443C217.796 31.4924 217.421 31.4854 216.879 31.8443C215.964 32.4374 214.911 32.7848 213.822 32.853C213.097 32.9215 212.368 32.7579 211.742 32.3858C211.115 32.0137 210.623 31.4523 210.336 30.7826C209.888 29.4182 209.951 27.9376 210.513 26.6163C211.076 25.2949 212.099 24.2228 213.393 23.5995C216.015 22.5528 218.377 24.0994 218.277 26.7987C218.277 27.1986 218.139 27.3185 217.734 27.3105H212.788C212.123 27.3105 211.771 27.4785 211.764 28.0103C211.757 28.5422 212.264 28.7291 212.712 28.7211H218.154C218.508 28.7683 218.867 28.7019 219.18 28.5316C219.494 28.3612 219.745 28.0957 219.897 27.7734C220.037 26.9951 220.037 26.1983 219.897 25.4201C219.764 24.6236 219.421 23.877 218.903 23.2576C218.474 22.7582 217.937 22.3615 217.334 22.097C216.731 21.8324 216.076 21.7067 215.417 21.7291C214.952 21.733 214.489 21.7816 214.033 21.874L214.039 21.834ZM184.796 19.2687C184.789 19.4103 184.811 19.5518 184.86 19.6845C184.91 19.8173 184.986 19.9387 185.084 20.041C185.182 20.1433 185.3 20.2245 185.43 20.2796C185.561 20.3347 185.701 20.3626 185.843 20.3614C186.234 20.3493 186.607 20.1926 186.89 19.9215C187.172 19.6504 187.344 19.2843 187.372 18.8938C187.379 18.7523 187.357 18.6108 187.308 18.478C187.259 18.3452 187.182 18.2239 187.084 18.1216C186.986 18.0193 186.868 17.9381 186.738 17.883C186.607 17.8278 186.467 17.8 186.325 17.8012C185.933 17.8152 185.56 17.9735 185.278 18.2457C184.996 18.5179 184.824 18.8847 184.796 19.2757V19.2687ZM173.46 17.4412C172.998 17.4054 172.54 17.5418 172.173 17.8241C171.806 18.1064 171.557 18.5146 171.473 18.9698C171.073 21.0862 170.709 23.2106 170.342 25.3351C170.31 25.4649 170.305 25.6002 170.329 25.732C170.352 25.8637 170.404 25.989 170.479 26.0995C170.555 26.21 170.653 26.3033 170.767 26.3731C170.881 26.443 171.009 26.4878 171.142 26.5048C171.395 26.5429 171.651 26.5583 171.906 26.5507H179.817C180 26.57 180.184 26.57 180.367 26.5507C180.63 26.5003 180.864 26.3527 181.022 26.1374C181.181 25.9221 181.253 25.6548 181.223 25.3891C181.185 24.9002 180.91 24.6892 180.245 24.6892H172.601C172.907 22.9897 173.201 21.3342 173.48 19.6766C173.541 19.3327 173.748 19.3557 173.992 19.3637H181.246C181.481 19.374 181.716 19.3534 181.946 19.3027C182.196 19.2329 182.412 19.0737 182.553 18.8554C182.694 18.6371 182.75 18.3748 182.71 18.1181C182.626 17.5522 182.21 17.4682 181.732 17.4682H173.432L173.46 17.4412ZM190.623 17.5212C190.474 17.6119 190.348 17.7354 190.254 17.8823C190.159 18.0293 190.1 18.1957 190.08 18.369C189.351 22.4445 188.623 26.5454 187.894 30.6716C187.741 31.5354 187.594 32.3991 187.451 33.2619C187.395 33.4449 187.403 33.6415 187.474 33.8193C187.545 33.9971 187.674 34.1454 187.841 34.2396C188.027 34.3214 188.233 34.3447 188.432 34.3065C188.632 34.2683 188.815 34.1703 188.957 34.0257C189.212 33.7864 189.366 33.4581 189.385 33.1089C189.767 30.9465 190.226 28.7991 190.493 26.6287C190.549 26.1049 190.74 25.6045 191.047 25.1761C191.353 24.7477 191.765 24.4057 192.243 24.1834C192.658 23.9506 193.1 23.7684 193.558 23.6405C195.683 23.0517 197.487 24.0914 197.758 26.1089C197.904 27.0353 197.842 27.9825 197.578 28.8822C197.314 29.782 196.853 30.612 196.229 31.3124C195.682 31.9613 194.944 32.4198 194.119 32.6217C193.295 32.8237 192.428 32.7587 191.643 32.4361C191.36 32.3211 191.062 32.2602 190.879 32.5511C190.767 32.6878 190.705 32.8594 190.705 33.0365C190.705 33.2135 190.767 33.3851 190.879 33.5218C191.206 33.9722 191.698 34.2746 192.247 34.3626C193.083 34.5502 193.952 34.5342 194.781 34.316C195.61 34.0979 196.374 33.6839 197.009 33.1089C198.177 32.1209 199.042 30.8244 199.507 29.3676C199.972 27.9108 200.017 26.3526 199.638 24.8712C199.489 24.098 199.099 23.3916 198.524 22.853C197.95 22.3144 197.22 21.9711 196.438 21.872C195.204 21.6388 193.926 21.8472 192.83 22.4609C192.194 22.7935 191.605 23.2097 191.079 23.6985C191.025 23.5295 191.025 23.3477 191.079 23.1787L191.927 18.326C191.988 18.1597 191.99 17.9773 191.931 17.81C191.873 17.6428 191.758 17.5011 191.606 17.4093C191.476 17.3256 191.325 17.2805 191.17 17.2793C190.956 17.29 190.748 17.3591 190.57 17.4792" fill="url(#paint0_linear_742_3158)"/>
<path d="M82.132 23.6895C84.876 21.0383 88.094 21.1522 89.248 23.8725L89.948 23.2157C90.4972 22.6603 91.1726 22.2458 91.9166 22.0077C92.6606 21.7695 93.4512 21.7148 94.2209 21.848C94.8881 21.9514 95.4983 22.2843 95.9463 22.7893C96.3943 23.2943 96.652 23.9397 96.675 24.6143C96.7284 25.3441 96.7437 26.0762 96.7209 26.8077V33.0739C96.7209 33.8837 96.369 34.3426 95.75 34.3346C95.131 34.3266 94.817 33.8687 94.817 33.0969V25.9059C94.756 23.8735 93.288 22.9487 91.438 23.7205C91.119 23.8569 90.8142 24.0243 90.528 24.2204C90.1536 24.4239 89.8462 24.7314 89.6427 25.1056C89.4392 25.4799 89.3483 25.905 89.381 26.3298C89.473 28.6222 89.381 30.9755 89.381 33.2989C89.4032 33.5191 89.3444 33.7398 89.2155 33.9198C89.0867 34.0998 88.8966 34.2266 88.681 34.2766C88.4851 34.3352 88.2753 34.3272 88.0844 34.2539C87.8935 34.1807 87.7323 34.0463 87.6259 33.8717C87.5074 33.6662 87.4616 33.4267 87.496 33.1919V26.2148C87.5072 26.015 87.5072 25.8148 87.496 25.615C87.505 25.2442 87.4179 24.8773 87.2434 24.55C87.0688 24.2227 86.8126 23.9461 86.4996 23.747C86.1866 23.5478 85.8274 23.4329 85.4569 23.4134C85.0864 23.3939 84.7172 23.4704 84.3849 23.6355C83.5858 23.9144 82.8794 24.4088 82.344 25.0641C82.1863 25.2657 82.1125 25.5203 82.138 25.775V33.0729C82.1535 33.2392 82.1535 33.4065 82.138 33.5728C82.0966 33.8036 81.9698 34.0103 81.7828 34.1519C81.5958 34.2934 81.3624 34.3594 81.129 34.3366C81.0175 34.3376 80.9069 34.3167 80.8036 34.275C80.7002 34.2333 80.6061 34.1717 80.5266 34.0936C80.4471 34.0155 80.3838 33.9225 80.3403 33.8199C80.2967 33.7174 80.2739 33.6072 80.2729 33.4958V22.7988C80.2804 22.6788 80.3117 22.5615 80.3652 22.4539C80.4187 22.3462 80.4933 22.2504 80.5844 22.172C80.6756 22.0936 80.7816 22.0343 80.896 21.9976C81.0105 21.9608 81.1312 21.9473 81.2509 21.958C81.4816 21.9591 81.7034 22.0471 81.872 22.2044C82.0407 22.3617 82.1438 22.5768 82.1609 22.8067V23.7165" fill="#848585"/>
<path d="M100.752 23.6896C103.452 20.8473 107.073 21.3972 107.914 23.9495C108.332 23.39 108.85 22.9133 109.443 22.5439C110.47 21.8827 111.712 21.6394 112.913 21.8641C114.442 22.139 115.328 23.3387 115.359 25.2261V33.1889C115.359 33.8998 114.984 34.3506 114.388 34.3356C114.252 34.3263 114.119 34.2894 113.997 34.2271C113.876 34.1649 113.768 34.0786 113.681 33.9736C113.594 33.8685 113.529 33.7468 113.49 33.6159C113.451 33.485 113.439 33.3476 113.455 33.212C113.493 30.9196 113.455 28.6272 113.455 26.3348C113.461 26.0973 113.449 25.8595 113.417 25.624C113.425 25.2486 113.336 24.8775 113.158 24.5468C112.98 24.2162 112.719 23.9373 112.401 23.7372C112.083 23.5372 111.719 23.4229 111.344 23.4055C110.969 23.388 110.595 23.4679 110.26 23.6376C109.48 23.9107 108.787 24.3853 108.25 25.0132C108.078 25.2283 107.998 25.503 108.028 25.777V33.19C108.056 33.3999 108.017 33.6133 107.917 33.7999C107.817 33.9865 107.66 34.1368 107.47 34.2296C107.315 34.2996 107.144 34.3272 106.975 34.3098C106.806 34.2923 106.644 34.2303 106.507 34.1302C106.369 34.03 106.261 33.8953 106.192 33.7396C106.124 33.5839 106.098 33.4129 106.117 33.2439V25.556C106.124 25.2372 106.058 24.9209 105.923 24.632C105.788 24.343 105.588 24.0892 105.338 23.8902C105.089 23.6913 104.797 23.5526 104.485 23.485C104.174 23.4174 103.85 23.4228 103.541 23.5006C102.487 23.703 101.545 24.2881 100.896 25.1432C100.762 25.3401 100.71 25.5814 100.751 25.816V33.2749C100.77 33.43 100.749 33.5873 100.69 33.732C100.631 33.8768 100.537 34.0043 100.415 34.1028C100.294 34.2012 100.15 34.2673 99.9961 34.2949C99.8423 34.3225 99.6841 34.3107 99.5361 34.2606C99.3387 34.2099 99.1648 34.0927 99.0437 33.9289C98.9226 33.765 98.8616 33.5644 98.8711 33.3609V22.8718C98.8677 22.7435 98.8909 22.6159 98.9392 22.497C98.9875 22.3781 99.0598 22.2704 99.1516 22.1807C99.2434 22.091 99.3527 22.0212 99.4727 21.9756C99.5927 21.9301 99.7208 21.9098 99.8491 21.9161C99.972 21.9182 100.093 21.945 100.206 21.9949C100.318 22.0449 100.419 22.1169 100.503 22.2067C100.587 22.2965 100.652 22.4023 100.694 22.5178C100.737 22.6332 100.755 22.756 100.749 22.8788V23.6426" fill="#848585"/>
<path d="M58.656 17.1863C59.7395 17.1245 60.8236 17.2973 61.8341 17.693C62.8446 18.0886 63.7577 18.6978 64.511 19.4787C64.6872 19.6418 64.8029 19.8598 64.8393 20.0971C64.8756 20.3344 64.8304 20.577 64.7111 20.7853C64.636 20.9212 64.5294 21.037 64.4003 21.1231C64.2712 21.2093 64.1233 21.2632 63.9691 21.2805C63.8148 21.2977 63.6586 21.2777 63.5137 21.2222C63.3688 21.1667 63.2393 21.0772 63.136 20.9613C62.4265 20.137 61.4905 19.5391 60.4442 19.2416C59.3979 18.9441 58.2873 18.9602 57.2501 19.2878C56.1688 19.5579 55.1836 20.1221 54.4038 20.918C53.6239 21.7139 53.0799 22.7103 52.832 23.7965C52.4028 25.2073 52.4304 26.7177 52.9108 28.1119C53.3911 29.5062 54.2998 30.7131 55.507 31.5604C56.659 32.3459 58.0531 32.6959 59.4396 32.5475C60.8261 32.3991 62.1145 31.7621 63.074 30.7506C63.156 30.6407 63.2599 30.549 63.3791 30.4812C63.4983 30.4134 63.6302 30.371 63.7666 30.3566C63.903 30.3422 64.0408 30.3562 64.1715 30.3977C64.3022 30.4392 64.4229 30.5073 64.5261 30.5976C64.6327 30.6984 64.7176 30.8198 64.7756 30.9545C64.8337 31.0892 64.8636 31.2343 64.8636 31.3809C64.8636 31.5276 64.8337 31.6727 64.7756 31.8074C64.7176 31.9421 64.6327 32.0635 64.5261 32.1642C63.7248 32.9983 62.7415 33.6358 61.6529 34.0269C60.5644 34.418 59.4 34.552 58.251 34.4186C56.3965 34.3241 54.6293 33.6015 53.2401 32.3696C51.8508 31.1378 50.9223 29.47 50.607 27.6405C49.682 22.8488 52.258 18.363 57.142 17.3553C57.6451 17.2477 58.1569 17.1865 58.671 17.1724" fill="#848585"/>
<path d="M160.328 31.9122L164.043 22.6968C164.103 22.4755 164.234 22.2804 164.417 22.1421C164.599 22.0038 164.823 21.9302 165.052 21.933C165.213 21.9274 165.373 21.9639 165.515 22.0389C165.658 22.1139 165.778 22.2248 165.865 22.3607C165.951 22.4965 166.001 22.6525 166.008 22.8133C166.016 22.9742 165.981 23.1342 165.908 23.2776C164.043 27.7554 162.186 32.2331 160.298 36.6959C160.019 37.4733 159.483 38.1321 158.778 38.5631C158.073 38.994 157.242 39.1712 156.423 39.0652C156.26 39.0549 156.099 39.0295 155.941 38.9893C155.841 38.9761 155.745 38.9433 155.657 38.8927C155.57 38.842 155.494 38.7746 155.432 38.6943C155.371 38.614 155.327 38.5224 155.301 38.4248C155.276 38.3271 155.27 38.2254 155.284 38.1255C155.33 37.6516 155.636 37.2928 156.117 37.3617C157.646 37.5837 158.257 36.7279 158.8 35.5052C158.991 35.1243 159.09 34.7044 159.09 34.2786C159.09 33.8528 158.991 33.4328 158.8 33.0519C157.4 29.8428 156.1 26.5947 154.756 23.3626C154.661 23.1957 154.618 23.0049 154.63 22.8134C154.642 22.622 154.71 22.4383 154.825 22.2849C154.94 22.14 155.094 22.0317 155.269 21.9733C155.444 21.9148 155.633 21.9088 155.811 21.956C155.999 21.996 156.171 22.0894 156.306 22.2249C156.442 22.3604 156.535 22.5323 156.575 22.7197L159.441 29.7658C159.724 30.4656 160.014 31.1714 160.341 31.9592" fill="#848585"/>
<path d="M125.625 32.539C124.685 33.5237 123.452 34.1778 122.109 34.4035C121.271 34.533 120.415 34.4645 119.609 34.2036C118.93 33.9617 118.352 33.4987 117.968 32.889C117.584 32.2792 117.417 31.5581 117.492 30.8415V22.9857C117.478 22.8528 117.493 22.7185 117.534 22.5915C117.576 22.4645 117.644 22.3476 117.733 22.2484C117.823 22.1492 117.932 22.0699 118.054 22.0157C118.176 21.9614 118.308 21.9333 118.442 21.9333C118.576 21.9333 118.708 21.9614 118.83 22.0157C118.952 22.0699 119.061 22.1492 119.151 22.2484C119.241 22.3476 119.308 22.4645 119.35 22.5915C119.391 22.7185 119.406 22.8528 119.392 22.9857V29.8628C119.323 32.4461 120.921 33.0619 123 32.662C123.485 32.5568 123.948 32.3681 124.368 32.1042C124.787 31.9107 125.136 31.5924 125.367 31.193C125.599 30.7935 125.701 30.3324 125.66 29.8727C125.66 29.8727 125.622 23.0636 125.66 22.8957C125.66 22.7676 125.686 22.6409 125.736 22.523C125.785 22.4051 125.859 22.2985 125.951 22.2094C126.043 22.1203 126.152 22.0506 126.271 22.0045C126.39 21.9584 126.518 21.9368 126.646 21.9409C126.774 21.9405 126.901 21.9667 127.018 22.0178C127.136 22.0689 127.241 22.1438 127.328 22.2377C127.415 22.3317 127.482 22.4427 127.523 22.5637C127.565 22.6847 127.581 22.8131 127.571 22.9407V33.2378C127.597 33.4679 127.538 33.6996 127.404 33.8886C127.27 34.0775 127.071 34.2103 126.845 34.2615C126.652 34.3217 126.443 34.3145 126.255 34.2409C126.066 34.1673 125.908 34.0319 125.806 33.8567C125.692 33.6653 125.636 33.4452 125.645 33.2228C125.659 32.9938 125.659 32.7641 125.645 32.535" fill="#848585"/>
<path d="M131.961 23.7506C132.821 22.8492 133.918 22.2082 135.126 21.9011C135.896 21.7253 136.695 21.7253 137.465 21.9011C139.192 22.268 140.11 23.4757 140.148 25.4932V33.318C140.159 33.4511 140.142 33.5849 140.097 33.7109C140.053 33.8369 139.983 33.9522 139.892 34.0494C139.8 34.1466 139.689 34.2236 139.566 34.2753C139.443 34.327 139.311 34.3524 139.177 34.3497C139.044 34.343 138.914 34.3095 138.794 34.2511C138.674 34.1927 138.568 34.1106 138.481 34.0099C138.394 33.9092 138.328 33.7919 138.287 33.6651C138.247 33.5383 138.232 33.4046 138.245 33.272V26.5739C138.245 23.9226 136.545 22.7529 134.056 23.8076C133.769 23.9276 133.49 24.0679 133.223 24.2275C132.808 24.4307 132.463 24.7547 132.235 25.157C132.008 25.5594 131.907 26.0212 131.946 26.4819L131.992 33.18C132.015 33.3199 132.008 33.4631 131.972 33.6002C131.935 33.7372 131.87 33.8648 131.78 33.9747C131.691 34.0846 131.579 34.1741 131.452 34.2374C131.325 34.3007 131.186 34.3362 131.044 34.3417C130.471 34.3797 130.096 33.8988 130.096 33.188V23.0818C130.096 22.363 130.44 21.9512 131.052 21.9432C131.664 21.9352 131.977 22.343 131.977 23.0968V23.7766" fill="#848585"/>
<path d="M150.581 22.059H152.4C152.608 22.0683 152.804 22.158 152.946 22.3092C153.089 22.4603 153.167 22.661 153.164 22.8687C153.177 22.9765 153.167 23.0858 153.135 23.1894C153.102 23.2929 153.048 23.3884 152.976 23.4693C152.903 23.5503 152.815 23.615 152.715 23.659C152.616 23.703 152.509 23.7253 152.4 23.7245C151.9 23.7625 150.527 23.7245 150.527 23.7245V31.2284C150.527 32.4661 151.139 32.894 152.339 32.6191C152.928 32.4891 153.386 32.68 153.516 33.1189C153.545 33.2355 153.55 33.3567 153.531 33.4752C153.512 33.5938 153.469 33.7072 153.405 33.8087C153.34 33.9101 153.256 33.9974 153.157 34.0653C153.058 34.1332 152.946 34.1803 152.828 34.2036C151.997 34.5135 151.087 34.543 150.237 34.2876C149.713 34.1037 149.266 33.7474 148.97 33.2769C148.675 32.8064 148.547 32.2495 148.609 31.6973V23.7275H147.332C147.216 23.743 147.099 23.7319 146.988 23.6951C146.877 23.6582 146.776 23.5966 146.693 23.5148C146.609 23.433 146.546 23.3333 146.507 23.2233C146.468 23.1132 146.455 22.9957 146.468 22.8797C146.46 22.3369 146.751 22.07 147.332 22.047H148.609V19.5597C148.608 19.4317 148.633 19.3048 148.682 19.1866C148.731 19.0684 148.803 18.9612 148.894 18.8714C148.986 18.7816 149.094 18.711 149.213 18.6639C149.332 18.6168 149.459 18.594 149.587 18.5969C149.711 18.5957 149.835 18.6198 149.949 18.6678C150.064 18.7157 150.168 18.7865 150.255 18.8758C150.341 18.9651 150.409 19.0711 150.453 19.1873C150.497 19.3035 150.517 19.4274 150.512 19.5517C150.516 19.5872 150.516 19.6231 150.512 19.6586C150.512 19.9875 150.512 22.043 150.512 22.043" fill="#848585"/>
<path d="M144.589 28.1385V33.2431C144.606 33.4169 144.575 33.592 144.501 33.75C144.426 33.908 144.311 34.043 144.166 34.1407C144.021 34.2385 143.853 34.2954 143.678 34.3054C143.504 34.3155 143.33 34.2783 143.175 34.1978C142.993 34.0892 142.848 33.9282 142.759 33.736C142.67 33.5438 142.64 33.3291 142.675 33.1201V23.0868C142.675 22.414 142.904 22.0701 143.401 21.9402C143.553 21.9 143.712 21.8976 143.864 21.9335C144.017 21.9693 144.159 22.0421 144.276 22.1456C144.394 22.2491 144.485 22.3799 144.54 22.5267C144.595 22.6734 144.613 22.8315 144.593 22.9869C144.593 24.7064 144.593 26.4179 144.593 28.1374" fill="#848585"/>
<path d="M142.372 19.1087C142.363 18.9405 142.388 18.7721 142.446 18.6139C142.504 18.4557 142.593 18.311 142.709 18.1886C142.825 18.0663 142.965 17.9689 143.12 17.9024C143.275 17.836 143.441 17.8018 143.61 17.8021C143.786 17.7891 143.963 17.8125 144.13 17.8709C144.296 17.9293 144.449 18.0215 144.579 18.1417C144.708 18.2618 144.811 18.4073 144.882 18.5692C144.952 18.731 144.989 18.9057 144.989 19.0822C144.989 19.2588 144.952 19.4334 144.882 19.5953C144.811 19.7571 144.708 19.9026 144.579 20.0228C144.449 20.1429 144.296 20.2351 144.13 20.2936C143.963 20.352 143.786 20.3754 143.61 20.3624C143.446 20.3624 143.284 20.3299 143.133 20.2667C142.981 20.2035 142.844 20.1109 142.729 19.9942C142.614 19.8776 142.523 19.7393 142.462 19.5873C142.4 19.4353 142.37 19.2726 142.372 19.1087Z" fill="#848585"/>
<path d="M75.8111 30.6136C75.5194 31.2708 75.0371 31.8253 74.4267 32.2055C73.8162 32.5857 73.1057 32.7739 72.3871 32.746C71.6787 32.7625 70.9806 32.5737 70.3773 32.2022C69.7739 31.8307 69.2911 31.2925 68.9871 30.6526C68.5682 29.8552 68.3652 28.9623 68.3981 28.0623C68.3695 27.3925 68.4828 26.7243 68.7304 26.1013C68.978 25.4784 69.3545 24.9147 69.8351 24.4473C70.2942 24.0342 70.8465 23.7385 71.4449 23.5854C72.0433 23.4324 72.6699 23.4267 73.271 23.5687C73.8721 23.7107 74.4298 23.9962 74.8964 24.4008C75.363 24.8054 75.7245 25.317 75.9501 25.8919C76.2796 26.6398 76.4382 27.4518 76.4143 28.2688C76.3905 29.0857 76.1847 29.8871 75.8121 30.6146L75.8111 30.6136ZM78.3041 26.9086C78.1988 25.8059 77.7696 24.7589 77.0705 23.8995C76.3713 23.0401 75.4335 22.4067 74.3751 22.0789C73.3017 21.6758 72.1329 21.5993 71.0161 21.859C69.8993 22.1188 68.8843 22.7031 68.0991 23.5385C67.447 24.254 66.9604 25.1041 66.6736 26.0286C66.3869 26.9531 66.3072 27.9293 66.4401 28.8881C66.6851 32.1282 69.1691 34.4665 72.9141 34.4745C73.9795 34.438 75.0108 34.0898 75.8803 33.4732C76.7499 32.8566 77.4194 31.9986 77.8061 31.0055C78.3822 29.7272 78.5566 28.3041 78.3061 26.9246" fill="#848585"/>
<path d="M15.479 44.9327C15.4563 45.1552 15.485 45.3799 15.563 45.5895C15.7148 45.9888 16.0148 46.3142 16.4006 46.4978C16.7864 46.6815 17.2282 46.7092 17.634 46.5752C18.0526 46.453 18.4082 46.1746 18.6273 45.7976C18.8463 45.4206 18.9121 44.9739 18.811 44.5498L16.131 34.0967L15.481 44.9327" fill="url(#paint1_linear_742_3158)"/>
<path d="M20.587 41.3746C20.6252 41.4778 20.6852 41.5716 20.763 41.6495C20.8253 41.7228 20.902 41.7825 20.9884 41.8248C21.0748 41.8671 21.1689 41.8911 21.265 41.8955C21.3611 41.8998 21.457 41.8843 21.5468 41.8499C21.6366 41.8155 21.7184 41.7629 21.787 41.6955C21.9282 41.5477 22.0101 41.3532 22.0171 41.1489C22.0241 40.9446 21.9557 40.745 21.825 40.5878L17.239 34.0996L20.587 41.3746Z" fill="url(#paint2_linear_742_3158)"/>
<path d="M10.3949 40.5007C10.3244 40.5819 10.2747 40.679 10.2499 40.7836C10.1975 40.9762 10.2226 41.1816 10.3198 41.3559C10.417 41.5303 10.5786 41.6596 10.7699 41.7164C10.9668 41.7744 11.1782 41.7563 11.3623 41.6658C11.5464 41.5752 11.6898 41.4188 11.7639 41.2275C11.7639 41.2275 14.9639 34.1745 14.9819 34.1135C14.9999 34.0525 10.3959 40.5017 10.3959 40.5017" fill="url(#paint3_linear_742_3158)"/>
<path d="M27.609 41.2117C27.9322 41.44 28.3033 41.5914 28.694 41.6546C29.4406 41.7673 30.2019 41.588 30.8196 41.154C31.4374 40.72 31.8641 40.0646 32.011 39.3242C32.1895 38.5743 32.0723 37.7843 31.6837 37.1185C31.2951 36.4526 30.6649 35.9619 29.924 35.7482C29.924 35.7482 18.824 33.8078 18.573 33.7388C18.573 33.7928 27.608 41.2127 27.608 41.2127" fill="url(#paint4_linear_742_3158)"/>
<path d="M3.94404 33.9597C3.29003 34.1312 2.72177 34.5368 2.34715 35.0995C1.97254 35.6622 1.81764 36.3429 1.91189 37.0122C2.00615 37.6816 2.34299 38.293 2.85844 38.7305C3.3739 39.1679 4.03208 39.4009 4.70804 39.3852C5.05393 39.3583 5.38879 39.2511 5.68605 39.0723C5.68605 39.0723 14.094 32.997 14.094 32.959C13.857 32.997 3.89404 33.9587 3.89404 33.9587" fill="url(#paint5_linear_742_3158)"/>
<path d="M39.603 30.4905C39.603 30.4905 18.965 32.6379 18.781 32.6759L39.794 34.3265C40.0769 34.3687 40.3654 34.3531 40.642 34.2805C40.8886 34.2274 41.1221 34.1255 41.3286 33.9807C41.5352 33.8359 41.7106 33.6512 41.8445 33.4375C41.9785 33.2239 42.0683 32.9855 42.1085 32.7365C42.1488 32.4876 42.1388 32.2331 42.079 31.9881C41.9423 31.538 41.6621 31.1451 41.2811 30.8691C40.9002 30.5931 40.4394 30.4493 39.969 30.4595C39.8468 30.452 39.7242 30.452 39.602 30.4595" fill="url(#paint6_linear_742_3158)"/>
<path d="M3.53206 28.9079C3.50828 29.1767 3.58991 29.4441 3.75971 29.6538C3.92951 29.8635 4.1742 29.999 4.44207 30.0316L14.3251 31.9421L4.95406 28.0602C4.83026 27.9964 4.69334 27.9621 4.55407 27.9602C4.29762 27.9599 4.05083 28.058 3.86472 28.2344C3.67861 28.4108 3.5674 28.6519 3.55407 28.9079" fill="url(#paint7_linear_742_3158)"/>
<path d="M35.872 22.9936C35.872 22.9936 23.046 29.1759 19.881 31.0404L19.4529 31.3003L37.3389 26.4326C37.5878 26.3818 37.8225 26.2774 38.0269 26.1267C38.4109 25.8413 38.6687 25.4177 38.7458 24.9457C38.8228 24.4736 38.7132 23.9901 38.4399 23.5974C38.1696 23.1883 37.7529 22.8982 37.2753 22.7866C36.7978 22.6751 36.2956 22.7506 35.872 22.9976" fill="url(#paint8_linear_742_3158)"/>
<path d="M29.237 17.0713C29.237 17.0713 21.593 25.9969 18.681 29.8478C18.543 30.0238 18.421 30.1997 18.291 30.3827L32.814 20.6094C33.0947 20.4281 33.3301 20.185 33.502 19.8986C33.8275 19.3514 33.9297 18.7001 33.7874 18.0796C33.6451 17.4591 33.2693 16.9173 32.738 16.5665C32.3028 16.2636 31.7853 16.1011 31.255 16.1006C30.8724 16.0986 30.4945 16.1851 30.151 16.3535C29.8075 16.522 29.5076 16.7676 29.275 17.0713" fill="url(#paint9_linear_742_3158)"/>
<path d="M0.948006 15.2298C0.667385 15.3897 0.432736 15.6193 0.266686 15.8963C0.100636 16.1734 0.00879158 16.4885 8.07642e-06 16.8113C-0.000888179 17.1004 0.0728242 17.3848 0.214013 17.6371C0.326774 17.8637 0.492017 18.0601 0.696007 18.2099C0.696007 18.2099 14.608 30.4366 14.638 30.4366L14.363 30.0167C12.337 26.9595 3.51701 15.7726 3.51701 15.7726C3.34122 15.51 3.10306 15.2952 2.82383 15.1472C2.5446 14.9993 2.23303 14.9229 1.91702 14.9248C1.57535 14.9268 1.2403 15.0192 0.946007 15.1928" fill="url(#paint10_linear_742_3158)"/>
<path d="M20.4169 11.5759C20.4169 11.5759 17.5279 25.782 17.0689 29.488L17.0229 29.9998L23.9559 12.4237C24.0695 12.1849 24.1295 11.9242 24.1319 11.6599C24.1496 11.1864 23.9797 10.725 23.6592 10.3759C23.3387 10.0268 22.8934 9.81825 22.42 9.79541H22.3279C21.8528 9.80691 21.3979 9.98954 21.0468 10.3097C20.6956 10.6299 20.472 11.066 20.4169 11.5379" fill="url(#paint11_linear_742_3158)"/>
<path d="M8.52303 0C8.12956 0.00723583 7.74378 0.110163 7.39904 0.299905C6.80131 0.679027 6.36218 1.26286 6.16378 1.94218C5.96538 2.6215 6.02128 3.3498 6.32104 3.9909C6.32104 3.9909 13.353 24.2263 15.493 29.2839C15.593 29.5208 15.707 29.7428 15.806 29.9717C15.844 29.9717 11.067 2.46233 11.067 2.46233C11.0264 2.08717 10.9122 1.72367 10.731 1.39262C10.523 0.990857 10.213 0.650748 9.83222 0.406352C9.4514 0.161955 9.01305 0.0218362 8.56104 0H8.52303Z" fill="url(#paint12_linear_742_3158)"/>
</g>
<defs>
<linearGradient id="paint0_linear_742_3158" x1="168.908" y1="25.8858" x2="219.951" y2="25.8858" gradientUnits="userSpaceOnUse">
<stop stop-color="#EF7C22"/>
<stop offset="1" stop-color="#F5A022"/>
</linearGradient>
<linearGradient id="paint1_linear_742_3158" x1="17.3743" y1="46.6966" x2="14.8348" y2="45.1939" gradientUnits="userSpaceOnUse">
<stop stop-color="#F26524"/>
<stop offset="0.25" stop-color="#EF7C22"/>
<stop offset="1" stop-color="#F5A022"/>
</linearGradient>
<linearGradient id="paint2_linear_742_3158" x1="21.9077" y1="42.0365" x2="18.8781" y2="40.3665" gradientUnits="userSpaceOnUse">
<stop stop-color="#F26524"/>
<stop offset="0.25" stop-color="#EF7C22"/>
<stop offset="1" stop-color="#F5A022"/>
</linearGradient>
<linearGradient id="paint3_linear_742_3158" x1="10.6943" y1="41.6963" x2="13.2294" y2="39.5005" gradientUnits="userSpaceOnUse">
<stop stop-color="#F26524"/>
<stop offset="0.25" stop-color="#EF7C22"/>
<stop offset="1" stop-color="#F5A022"/>
</linearGradient>
<linearGradient id="paint4_linear_742_3158" x1="32.2953" y1="39.9785" x2="26.8955" y2="33.4343" gradientUnits="userSpaceOnUse">
<stop stop-color="#F26524"/>
<stop offset="0.25" stop-color="#EF7C22"/>
<stop offset="1" stop-color="#F5A022"/>
</linearGradient>
<linearGradient id="paint5_linear_742_3158" x1="1.53088" y1="37.6892" x2="5.34145" y2="32.8165" gradientUnits="userSpaceOnUse">
<stop stop-color="#F26524"/>
<stop offset="0.25" stop-color="#EF7C22"/>
<stop offset="1" stop-color="#F5A022"/>
</linearGradient>
<linearGradient id="paint6_linear_742_3158" x1="42.3429" y1="32.5537" x2="40.6307" y2="28.6501" gradientUnits="userSpaceOnUse">
<stop stop-color="#F26524"/>
<stop offset="0.25" stop-color="#EF7C22"/>
<stop offset="1" stop-color="#F5A022"/>
</linearGradient>
<linearGradient id="paint7_linear_742_3158" x1="3.16092" y1="28.5017" x2="4.25364" y2="31.386" gradientUnits="userSpaceOnUse">
<stop stop-color="#F26524"/>
<stop offset="0.25" stop-color="#EF7C22"/>
<stop offset="1" stop-color="#F5A022"/>
</linearGradient>
<linearGradient id="paint8_linear_742_3158" x1="38.6153" y1="24.098" x2="34.5855" y2="30.1577" gradientUnits="userSpaceOnUse">
<stop stop-color="#F26524"/>
<stop offset="0.25" stop-color="#EF7C22"/>
<stop offset="1" stop-color="#F5A022"/>
</linearGradient>
<linearGradient id="paint9_linear_742_3158" x1="33.1032" y1="17.2003" x2="26.9989" y2="22.6843" gradientUnits="userSpaceOnUse">
<stop stop-color="#F26524"/>
<stop offset="0.25" stop-color="#EF7C22"/>
<stop offset="1" stop-color="#F5A022"/>
</linearGradient>
<linearGradient id="paint10_linear_742_3158" x1="0.204932" y1="14.9713" x2="6.71781" y2="21.2637" gradientUnits="userSpaceOnUse">
<stop stop-color="#F26524"/>
<stop offset="0.25" stop-color="#EF7C22"/>
<stop offset="1" stop-color="#F5A022"/>
</linearGradient>
<linearGradient id="paint11_linear_742_3158" x1="23.0098" y1="9.83582" x2="18.4137" y2="11.2965" gradientUnits="userSpaceOnUse">
<stop stop-color="#F26524"/>
<stop offset="0.25" stop-color="#EF7C22"/>
<stop offset="1" stop-color="#F5A022"/>
</linearGradient>
<linearGradient id="paint12_linear_742_3158" x1="7.95986" y1="0.149859" x2="14.1168" y2="2.84285" gradientUnits="userSpaceOnUse">
<stop stop-color="#F26524"/>
<stop offset="0.25" stop-color="#EF7C22"/>
<stop offset="1" stop-color="#F5A022"/>
</linearGradient>
<clipPath id="clip0_742_3158">
<rect width="220" height="58" fill="white"/>
</clipPath>
</defs>
</svg>
