<svg width="64" height="64" viewBox="0 0 64 64" fill="none" xmlns="http://www.w3.org/2000/svg">
<path opacity="0.05" d="M32 64C49.6731 64 64 49.6731 64 32C64 14.3269 49.6731 0 32 0C14.3269 0 0 14.3269 0 32C0 49.6731 14.3269 64 32 64Z" fill="url(#paint0_linear_403_2920)"/>
<path d="M40.255 43.501C40.155 43.501 40.055 43.501 39.96 43.488C36.5762 43.1208 33.3253 41.967 30.467 40.119C27.8219 38.4324 25.5778 36.1876 23.892 33.542C22.0447 30.6815 20.8936 27.4278 20.531 24.042C20.4901 23.6172 20.5336 23.1885 20.6589 22.7805C20.7843 22.3725 20.989 21.9933 21.2614 21.6647C21.5338 21.3361 21.8684 21.0646 22.246 20.8657C22.6237 20.6669 23.0369 20.5446 23.462 20.506C23.562 20.498 23.655 20.493 23.753 20.493H26.898C27.6766 20.4959 28.4283 20.7787 29.0158 21.2898C29.6033 21.8009 29.9874 22.5062 30.098 23.277C30.2182 24.1899 30.4413 25.0862 30.763 25.949C30.9795 26.5282 31.0261 27.1572 30.8973 27.762C30.7685 28.3668 30.4696 28.9223 30.036 29.363L29.357 30.041C30.5429 31.8744 32.1038 33.4358 33.937 34.6221L34.61 33.948C35.0513 33.5121 35.608 33.2117 36.2146 33.0822C36.8212 32.9526 37.4521 32.9994 38.033 33.217C38.8914 33.5364 39.783 33.7584 40.691 33.879C41.4761 33.9884 42.1939 34.3817 42.7087 34.9844C43.2235 35.5871 43.4997 36.3575 43.485 37.15V40.25C43.4874 41.1093 43.1485 41.9345 42.5429 42.5441C41.9372 43.1537 41.1143 43.4978 40.255 43.501ZM40.181 41.173H40.25C40.4905 41.1698 40.72 41.0718 40.8886 40.9003C41.0571 40.7287 41.151 40.4975 41.15 40.257V37.111C41.1556 36.8876 41.0789 36.6699 40.9346 36.4994C40.7902 36.3288 40.5883 36.2174 40.367 36.186C39.2878 36.0428 38.2281 35.7785 37.208 35.3981C37.0448 35.336 36.8673 35.3217 36.6963 35.3572C36.5253 35.3926 36.368 35.4762 36.243 35.598L34.929 36.912C34.7485 37.0925 34.5137 37.2087 34.2607 37.2427C34.0078 37.2766 33.7507 37.2265 33.529 37.1C30.7499 35.5188 28.4487 33.2173 26.868 30.438C26.7416 30.2162 26.6917 29.959 26.7258 29.7061C26.76 29.4531 26.8764 29.2183 27.057 29.038L28.375 27.7211C28.4956 27.5969 28.5785 27.4409 28.6139 27.2715C28.6493 27.102 28.6358 26.9261 28.575 26.764C28.1926 25.7392 27.9269 24.6744 27.783 23.59C27.7492 23.3734 27.6387 23.1763 27.4716 23.0344C27.3046 22.8925 27.0922 22.8154 26.873 22.817H23.673C23.5536 22.8276 23.4374 22.8616 23.3312 22.9171C23.2249 22.9726 23.1307 23.0484 23.0538 23.1404C22.9769 23.2323 22.9188 23.3385 22.883 23.4529C22.8472 23.5673 22.8343 23.6876 22.845 23.807C23.1708 26.8256 24.1982 29.7262 25.845 32.277C27.3507 34.6405 29.3552 36.6461 31.718 38.1531C34.2643 39.8011 37.1601 40.8321 40.175 41.1641L40.181 41.173Z" fill="url(#paint1_linear_403_2920)"/>
<defs>
<linearGradient id="paint0_linear_403_2920" x1="0" y1="0" x2="0" y2="64" gradientUnits="userSpaceOnUse">
<stop stop-color="#C81162"/>
<stop offset="0.0833333" stop-color="#CD205D"/>
<stop offset="0.15625" stop-color="#D22F58"/>
<stop offset="0.260417" stop-color="#D63D53"/>
<stop offset="0.359375" stop-color="#DB4C4D"/>
<stop offset="0.463542" stop-color="#DF5A48"/>
<stop offset="0.572917" stop-color="#E46843"/>
<stop offset="0.682292" stop-color="#E8763E"/>
<stop offset="0.765625" stop-color="#EC8439"/>
<stop offset="0.875" stop-color="#F19134"/>
<stop offset="0.989583" stop-color="#F49E2F"/>
</linearGradient>
<linearGradient id="paint1_linear_403_2920" x1="43.4855" y1="20.493" x2="43.4855" y2="43.501" gradientUnits="userSpaceOnUse">
<stop stop-color="#C81162"/>
<stop offset="0.0833333" stop-color="#CD205D"/>
<stop offset="0.15625" stop-color="#D22F58"/>
<stop offset="0.260417" stop-color="#D63D53"/>
<stop offset="0.359375" stop-color="#DB4C4D"/>
<stop offset="0.463542" stop-color="#DF5A48"/>
<stop offset="0.572917" stop-color="#E46843"/>
<stop offset="0.682292" stop-color="#E8763E"/>
<stop offset="0.765625" stop-color="#EC8439"/>
<stop offset="0.875" stop-color="#F19134"/>
<stop offset="0.989583" stop-color="#F49E2F"/>
</linearGradient>
</defs>
</svg>
