<svg width="94" height="19" viewBox="0 0 94 19" fill="none" xmlns="http://www.w3.org/2000/svg">
<path d="M0.5 0.77417H17.9375V18.2183H0.5V0.77417ZM19.3906 0.77417H36.8281V18.2183H19.3906V0.77417ZM38.2812 0.77417H55.7188V18.2183H38.2812V0.77417ZM57.1719 0.77417H74.6094V18.2183H57.1719V0.77417ZM76.0625 0.77417H93.5V18.2183H76.0625V0.77417Z" fill="#00B67A"/>
<path d="M9.21872 12.5307L11.8707 11.8584L12.9787 15.2745L9.21872 12.5307ZM15.3218 8.11515H10.6537L9.21872 3.71777L7.78376 8.11515H3.1156L6.89373 10.8408L5.45876 15.2382L9.23689 12.5125L11.5619 10.8408L15.3218 8.11515ZM28.1094 12.5307L30.7613 11.8584L31.8693 15.2745L28.1094 12.5307ZM34.2125 8.11515H29.5443L28.1094 3.71777L26.6744 8.11515H22.0062L25.7843 10.8408L24.3494 15.2382L28.1275 12.5125L30.4525 10.8408L34.2125 8.11515ZM47 12.5307L49.6519 11.8584L50.7599 15.2745L47 12.5307ZM53.1031 8.11515H48.4349L47 3.71777L45.565 8.11515H40.8968L44.675 10.8408L43.24 15.2382L47.0181 12.5125L49.3431 10.8408L53.1031 8.11515ZM65.8906 12.5307L68.5425 11.8584L69.6506 15.2745L65.8906 12.5307ZM71.9937 8.11515H67.3256L65.8906 3.71777L64.4556 8.11515H59.7875L63.5656 10.8408L62.1306 15.2382L65.9088 12.5125L68.2338 10.8408L71.9937 8.11515ZM84.7812 12.5307L87.4332 11.8584L88.5412 15.2745L84.7812 12.5307ZM90.8843 8.11515H86.2162L84.7812 3.71777L83.3463 8.11515H78.6781L82.4562 10.8408L81.0213 15.2382L84.7994 12.5125L87.1244 10.8408L90.8843 8.11515Z" fill="white"/>
</svg>
