<svg width="78" height="20" viewBox="0 0 78 20" fill="none" xmlns="http://www.w3.org/2000/svg">
<path d="M20.7382 7.47314L28.528 7.47315L28.528 8.92331L25.4609 8.92331L25.4609 17.0981L23.7797 17.0981L23.7797 8.92331L20.7254 8.92331L20.7382 7.47314ZM28.1944 10.1296L29.6317 10.1296L29.6317 11.4771L29.6574 11.4771C29.7087 11.2846 29.7985 11.105 29.9269 10.9253C30.0552 10.7456 30.2092 10.5788 30.4017 10.4376C30.5814 10.2836 30.7867 10.1681 31.0177 10.0783C31.2359 9.98848 31.4669 9.93714 31.6979 9.93714C31.8775 9.93714 32.0059 9.94998 32.07 9.94998C32.1342 9.96281 32.2112 9.97565 32.2754 9.97565L32.2754 11.4515C32.1727 11.4258 32.0572 11.413 31.9417 11.4001C31.8262 11.3873 31.7235 11.3745 31.608 11.3745C31.3514 11.3745 31.1075 11.4258 30.8765 11.5285C30.6455 11.6311 30.453 11.7851 30.2734 11.9776C30.1065 12.183 29.9654 12.4268 29.8627 12.722C29.76 13.0171 29.7087 13.3636 29.7087 13.7486L29.7087 17.0596L28.1687 17.0596L28.1944 10.1296ZM39.3337 17.0981L37.8194 17.0981L37.8194 16.1228L37.7937 16.1228C37.6012 16.4821 37.3189 16.7516 36.9467 16.9698C36.5745 17.188 36.1895 17.2906 35.8045 17.2906C34.8934 17.2906 34.226 17.0725 33.8154 16.6105C33.4047 16.1613 33.1994 15.4683 33.1994 14.5571L33.1994 10.1296L34.7394 10.1296L34.7394 14.4031C34.7394 15.0191 34.8549 15.4555 35.0987 15.6993C35.3297 15.956 35.6634 16.0843 36.0869 16.0843C36.4077 16.0843 36.6772 16.033 36.8954 15.9303C37.1135 15.8276 37.2932 15.6993 37.4215 15.5325C37.5627 15.3656 37.6525 15.1603 37.7167 14.9293C37.7809 14.6983 37.8065 14.4416 37.8065 14.1721L37.8065 10.1296L39.3465 10.1296L39.3465 17.0981L39.3337 17.0981ZM41.9517 14.8651C42.003 15.3143 42.1699 15.6223 42.465 15.8148C42.7602 15.9945 43.1195 16.0843 43.5302 16.0843C43.6714 16.0843 43.8382 16.0715 44.0179 16.0458C44.1975 16.0201 44.3772 15.9816 44.5312 15.9175C44.698 15.8533 44.8264 15.7635 44.929 15.6351C45.0317 15.5068 45.083 15.3528 45.0702 15.1603C45.0574 14.9678 44.9932 14.801 44.852 14.6726C44.7109 14.5443 44.544 14.4545 44.3387 14.3646C44.1334 14.2876 43.8895 14.2235 43.62 14.1721C43.3505 14.1208 43.081 14.0566 42.7987 13.9925C42.5164 13.9283 42.234 13.8513 41.9645 13.7615C41.695 13.6716 41.464 13.5561 41.2459 13.3893C41.0405 13.2353 40.8609 13.0428 40.7454 12.799C40.617 12.5551 40.5529 12.2728 40.5529 11.9135C40.5529 11.5285 40.6427 11.2205 40.8352 10.9638C41.0149 10.7071 41.2587 10.5018 41.541 10.3478C41.8234 10.1938 42.1442 10.0783 42.4907 10.0141C42.8372 9.94998 43.1709 9.92431 43.4789 9.92431C43.8382 9.92431 44.1847 9.96281 44.5055 10.0398C44.8264 10.1168 45.1344 10.2323 45.391 10.412C45.6605 10.5788 45.8787 10.8098 46.0455 11.0793C46.2252 11.3488 46.3279 11.6825 46.3792 12.0675L44.775 12.0675C44.698 11.6953 44.5312 11.4515 44.2745 11.3231C44.005 11.1948 43.7099 11.1306 43.3634 11.1306C43.2607 11.1306 43.1195 11.1435 42.9784 11.1563C42.8244 11.182 42.696 11.2076 42.5549 11.259C42.4265 11.3103 42.311 11.3873 42.2212 11.4771C42.1314 11.567 42.08 11.6953 42.08 11.8493C42.08 12.0418 42.1442 12.183 42.2725 12.2985C42.4009 12.414 42.5677 12.5038 42.7859 12.5936C42.9912 12.6706 43.235 12.7348 43.5045 12.7861C43.774 12.8375 44.0564 12.9016 44.3387 12.9658C44.621 13.03 44.8905 13.107 45.16 13.1968C45.4295 13.2866 45.6734 13.4021 45.8787 13.569C46.084 13.723 46.2637 13.9155 46.392 14.1465C46.5204 14.3775 46.5845 14.6726 46.5845 15.0063C46.5845 15.417 46.4947 15.7635 46.3022 16.0586C46.1097 16.341 45.8659 16.5848 45.5707 16.7645C45.2755 16.9441 44.929 17.0725 44.5697 17.1623C44.1975 17.2393 43.8382 17.2906 43.4789 17.2906C43.0425 17.2906 42.6319 17.2393 42.2597 17.1366C41.8875 17.034 41.5539 16.88 41.2844 16.6875C41.0149 16.4821 40.7967 16.2383 40.6427 15.9303C40.4887 15.6351 40.3989 15.2758 40.386 14.8523L41.9389 14.8523L41.9389 14.8651L41.9517 14.8651ZM47.0209 10.1296L48.1887 10.1296L48.1887 8.02498L49.7287 8.02498L49.7287 10.1168L51.1147 10.1168L51.1147 11.259L49.7287 11.259L49.7287 14.9806C49.7287 15.1475 49.7415 15.2758 49.7543 15.4041C49.7672 15.5196 49.8057 15.6223 49.8442 15.6993C49.8955 15.7763 49.9725 15.8405 50.0624 15.879C50.165 15.9175 50.2934 15.9431 50.473 15.9431C50.5757 15.9431 50.6912 15.9431 50.7939 15.9303C50.8965 15.9175 51.012 15.9046 51.1147 15.879L51.1147 17.0725C50.9479 17.0981 50.781 17.111 50.6142 17.1238C50.4474 17.1495 50.2934 17.1495 50.1137 17.1495C49.703 17.1495 49.3822 17.111 49.1384 17.034C48.8945 16.957 48.702 16.8415 48.5609 16.7003C48.4197 16.5463 48.3299 16.3666 48.2785 16.1485C48.2272 15.9303 48.2015 15.6608 48.1887 15.3785L48.1887 11.2718L47.0209 11.2718L47.0209 10.104L47.0209 10.1296ZM52.1927 10.1296L53.6429 10.1296L53.6429 11.0793L53.6685 11.0793C53.8867 10.6686 54.1819 10.3863 54.5668 10.2066C54.9519 10.027 55.3625 9.93714 55.8245 9.93714C56.3764 9.93715 56.8512 10.027 57.2618 10.2323C57.6725 10.4248 58.0062 10.6815 58.2757 11.028C58.5452 11.3616 58.7505 11.7595 58.8788 12.2086C59.0072 12.6578 59.0842 13.1455 59.0842 13.646C59.0842 14.1208 59.02 14.57 58.9045 15.0063C58.7762 15.4426 58.5965 15.8405 58.3527 16.1741C58.1088 16.5078 57.8008 16.7773 57.4159 16.9826C57.0308 17.188 56.5945 17.2906 56.0812 17.2906C55.863 17.2906 55.632 17.265 55.4138 17.2265C55.1957 17.188 54.9775 17.1238 54.7722 17.034C54.5669 16.9441 54.3744 16.8286 54.2075 16.6875C54.0279 16.5463 53.8867 16.3795 53.7712 16.1998L53.7455 16.1998L53.7455 19.6776L52.2055 19.6776L52.2055 10.1296L52.1927 10.1296ZM57.5699 13.6203C57.5699 13.3123 57.5314 13.0043 57.4415 12.7091C57.3645 12.414 57.2362 12.1573 57.0694 11.9263C56.9025 11.6953 56.6972 11.5156 56.4662 11.3745C56.2224 11.2333 55.94 11.1691 55.632 11.1691C54.9904 11.1691 54.5027 11.3873 54.169 11.8365C53.8482 12.2856 53.6814 12.8888 53.6814 13.6331C53.6814 13.9925 53.7199 14.3133 53.8097 14.6085C53.8995 14.9036 54.015 15.1603 54.1947 15.3785C54.3615 15.5966 54.5669 15.7635 54.8107 15.8918C55.0545 16.0201 55.324 16.0843 55.6449 16.0843C56.0042 16.0843 56.2865 16.0073 56.5304 15.8661C56.7742 15.725 56.9667 15.5325 57.1335 15.3143C57.2875 15.0833 57.403 14.8266 57.4672 14.5315C57.5313 14.2235 57.5699 13.9283 57.5699 13.6203ZM60.2777 7.47315L61.8177 7.47315L61.8177 8.92331L60.2777 8.92331L60.2777 7.47315ZM60.2777 10.1296L61.8177 10.1296L61.8177 17.0981L60.2777 17.0981L60.2777 10.1296ZM63.1908 7.47315L64.7309 7.47315L64.7308 17.0981L63.1908 17.0981L63.1908 7.47315ZM69.4278 17.2906C68.876 17.2906 68.3755 17.2008 67.9392 17.0083C67.5028 16.8158 67.1435 16.572 66.8355 16.2511C66.5404 15.9303 66.3093 15.5325 66.1553 15.0833C66.0013 14.6341 65.9115 14.1336 65.9115 13.6075C65.9115 13.0813 65.9885 12.5936 66.1553 12.1445C66.3093 11.6953 66.5404 11.3103 66.8355 10.9766C67.1307 10.6558 67.5028 10.3991 67.9392 10.2195C68.3755 10.0398 68.876 9.93715 69.4278 9.93715C69.9797 9.93715 70.4802 10.027 70.9165 10.2195C71.3529 10.3991 71.7122 10.6558 72.0202 10.9766C72.3153 11.2975 72.5463 11.6953 72.7003 12.1445C72.8543 12.5936 72.9442 13.0813 72.9442 13.6075C72.9442 14.1465 72.8672 14.6341 72.7003 15.0833C72.5335 15.5325 72.3153 15.9175 72.0202 16.2511C71.725 16.572 71.3529 16.8286 70.9165 17.0083C70.4802 17.188 69.9925 17.2906 69.4278 17.2906ZM69.4278 16.0715C69.7615 16.0715 70.0695 15.9945 70.3133 15.8533C70.57 15.7121 70.7625 15.5196 70.9293 15.2886C71.0962 15.0576 71.2117 14.7881 71.2887 14.5058C71.3657 14.2106 71.4042 13.9155 71.4042 13.6075C71.4042 13.3123 71.3657 13.0171 71.2887 12.722C71.2117 12.4268 71.0962 12.1701 70.9293 11.9391C70.7625 11.7081 70.5572 11.5285 70.3134 11.3873C70.0567 11.2461 69.7615 11.1691 69.4278 11.1691C69.0942 11.1691 68.7862 11.2461 68.5424 11.3873C68.2857 11.5285 68.0932 11.721 67.9264 11.9391C67.7595 12.1701 67.644 12.4268 67.567 12.722C67.49 13.0171 67.4515 13.3123 67.4515 13.6075C67.4515 13.9155 67.49 14.2106 67.567 14.5058C67.644 14.801 67.7595 15.0576 67.9264 15.2886C68.0932 15.5196 68.2985 15.7121 68.5424 15.8533C68.799 16.0073 69.0942 16.0715 69.4278 16.0715ZM73.4062 10.1296L74.574 10.1296L74.574 8.02498L76.114 8.02498L76.114 10.1168L77.5 10.1168L77.5 11.259L76.114 11.259L76.114 14.9806C76.114 15.1475 76.1268 15.2758 76.1397 15.4041C76.1525 15.5196 76.191 15.6223 76.2295 15.6993C76.2808 15.7763 76.3578 15.8405 76.4477 15.879C76.5503 15.9175 76.6787 15.9431 76.8583 15.9431C76.961 15.9431 77.0765 15.9431 77.1792 15.9303C77.2818 15.9175 77.3973 15.9046 77.5 15.879L77.5 17.0725C77.3332 17.0981 77.1663 17.111 76.9995 17.1238C76.8327 17.1495 76.6787 17.1495 76.499 17.1495C76.0883 17.1495 75.7675 17.111 75.5237 17.034C75.2798 16.957 75.0873 16.8415 74.9462 16.7003C74.805 16.5463 74.7152 16.3666 74.6639 16.1485C74.6125 15.9303 74.5868 15.6608 74.574 15.3785L74.574 11.2718L73.4062 11.2718L73.4062 10.104L73.4062 10.1296Z" fill="white"/>
<path d="M18.9415 7.47317L11.896 7.47317L9.72717 0.774171L7.5455 7.47317L0.499999 7.46034L6.198 11.6055L4.01633 18.3045L9.71433 14.1593L15.4123 18.3045L13.2435 11.6055L18.9415 7.47317Z" fill="#00B67A"/>
<path d="M13.7311 13.1198L13.2435 11.6055L9.72714 14.1593L13.7311 13.1198Z" fill="#005128"/>
</svg>
