<svg width="77" height="19" viewBox="0 0 77 19" fill="none" xmlns="http://www.w3.org/2000/svg">
<path d="M20.2382 6.69897L28.028 6.69898L28.028 8.14914L24.9609 8.14914L24.9609 16.324L23.2797 16.324L23.2797 8.14914L20.2254 8.14914L20.2382 6.69897ZM27.6944 9.35547L29.1317 9.35547L29.1317 10.703L29.1574 10.703C29.2087 10.5105 29.2985 10.3308 29.4269 10.1511C29.5552 9.97147 29.7092 9.80464 29.9017 9.66347C30.0814 9.50947 30.2867 9.39397 30.5177 9.30414C30.7359 9.21431 30.9669 9.16297 31.1979 9.16297C31.3775 9.16297 31.5059 9.17581 31.57 9.17581C31.6342 9.18864 31.7112 9.20148 31.7754 9.20148L31.7754 10.6773C31.6727 10.6516 31.5572 10.6388 31.4417 10.626C31.3262 10.6131 31.2235 10.6003 31.108 10.6003C30.8514 10.6003 30.6075 10.6516 30.3765 10.7543C30.1455 10.857 29.953 11.011 29.7734 11.2035C29.6065 11.4088 29.4654 11.6526 29.3627 11.9478C29.26 12.243 29.2087 12.5895 29.2087 12.9745L29.2087 16.2855L27.6687 16.2855L27.6944 9.35547ZM38.8337 16.324L37.3194 16.324L37.3194 15.3486L37.2937 15.3486C37.1012 15.708 36.8189 15.9775 36.4467 16.1956C36.0745 16.4138 35.6895 16.5165 35.3045 16.5165C34.3934 16.5165 33.726 16.2983 33.3154 15.8363C32.9047 15.3871 32.6994 14.6941 32.6994 13.783L32.6994 9.35547L34.2394 9.35547L34.2394 13.629C34.2394 14.245 34.3549 14.6813 34.5987 14.9251C34.8297 15.1818 35.1634 15.3101 35.5869 15.3101C35.9077 15.3101 36.1772 15.2588 36.3954 15.1561C36.6135 15.0535 36.7932 14.9251 36.9215 14.7583C37.0627 14.5915 37.1525 14.3861 37.2167 14.1551C37.2809 13.9241 37.3065 13.6675 37.3065 13.398L37.3065 9.35547L38.8465 9.35547L38.8465 16.324L38.8337 16.324ZM41.4517 14.091C41.503 14.5401 41.6699 14.8481 41.965 15.0406C42.2602 15.2203 42.6195 15.3101 43.0302 15.3101C43.1714 15.3101 43.3382 15.2973 43.5179 15.2716C43.6975 15.246 43.8772 15.2075 44.0312 15.1433C44.198 15.0791 44.3264 14.9893 44.429 14.861C44.5317 14.7326 44.583 14.5786 44.5702 14.3861C44.5574 14.1936 44.4932 14.0268 44.352 13.8985C44.2109 13.7701 44.044 13.6803 43.8387 13.5905C43.6334 13.5135 43.3895 13.4493 43.12 13.398C42.8505 13.3466 42.581 13.2825 42.2987 13.2183C42.0164 13.1541 41.734 13.0771 41.4645 12.9873C41.195 12.8975 40.964 12.782 40.7459 12.6151C40.5405 12.4611 40.3609 12.2686 40.2454 12.0248C40.117 11.781 40.0529 11.4986 40.0529 11.1393C40.0529 10.7543 40.1427 10.4463 40.3352 10.1896C40.5149 9.93297 40.7587 9.72764 41.041 9.57364C41.3234 9.41964 41.6442 9.30414 41.9907 9.23997C42.3372 9.17581 42.6709 9.15014 42.9789 9.15014C43.3382 9.15014 43.6847 9.18864 44.0055 9.26564C44.3264 9.34264 44.6344 9.45814 44.891 9.63781C45.1605 9.80464 45.3787 10.0356 45.5455 10.3051C45.7252 10.5746 45.8279 10.9083 45.8792 11.2933L44.275 11.2933C44.198 10.9211 44.0312 10.6773 43.7745 10.549C43.505 10.4206 43.2099 10.3565 42.8634 10.3565C42.7607 10.3565 42.6195 10.3693 42.4784 10.3821C42.3244 10.4078 42.196 10.4335 42.0549 10.4848C41.9265 10.5361 41.811 10.6131 41.7212 10.703C41.6314 10.7928 41.58 10.9211 41.58 11.0751C41.58 11.2676 41.6442 11.4088 41.7725 11.5243C41.9009 11.6398 42.0677 11.7296 42.2859 11.8195C42.4912 11.8965 42.735 11.9606 43.0045 12.012C43.274 12.0633 43.5564 12.1275 43.8387 12.1916C44.121 12.2558 44.3905 12.3328 44.66 12.4226C44.9295 12.5125 45.1734 12.628 45.3787 12.7948C45.584 12.9488 45.7637 13.1413 45.892 13.3723C46.0204 13.6033 46.0845 13.8985 46.0845 14.2321C46.0845 14.6428 45.9947 14.9893 45.8022 15.2845C45.6097 15.5668 45.3659 15.8106 45.0707 15.9903C44.7755 16.17 44.429 16.2983 44.0697 16.3881C43.6975 16.4651 43.3382 16.5165 42.9789 16.5165C42.5425 16.5165 42.1319 16.4651 41.7597 16.3625C41.3875 16.2598 41.0539 16.1058 40.7844 15.9133C40.5149 15.708 40.2967 15.4641 40.1427 15.1561C39.9887 14.861 39.8989 14.5016 39.886 14.0781L41.4389 14.0781L41.4389 14.091L41.4517 14.091ZM46.5209 9.35547L47.6887 9.35547L47.6887 7.25081L49.2287 7.25081L49.2287 9.34264L50.6147 9.34264L50.6147 10.4848L49.2287 10.4848L49.2287 14.2065C49.2287 14.3733 49.2415 14.5016 49.2543 14.63C49.2672 14.7455 49.3057 14.8481 49.3442 14.9251C49.3955 15.0021 49.4725 15.0663 49.5624 15.1048C49.665 15.1433 49.7934 15.169 49.973 15.169C50.0757 15.169 50.1912 15.169 50.2939 15.1561C50.3965 15.1433 50.512 15.1305 50.6147 15.1048L50.6147 16.2983C50.4479 16.324 50.281 16.3368 50.1142 16.3496C49.9474 16.3753 49.7934 16.3753 49.6137 16.3753C49.203 16.3753 48.8822 16.3368 48.6384 16.2598C48.3945 16.1828 48.202 16.0673 48.0609 15.9261C47.9197 15.7721 47.8299 15.5925 47.7785 15.3743C47.7272 15.1561 47.7015 14.8866 47.6887 14.6043L47.6887 10.4976L46.5209 10.4976L46.5209 9.32981L46.5209 9.35547ZM51.6927 9.35547L53.1429 9.35547L53.1429 10.3051L53.1685 10.3051C53.3867 9.89447 53.6819 9.61214 54.0668 9.43248C54.4519 9.25281 54.8625 9.16298 55.3245 9.16298C55.8764 9.16298 56.3512 9.25281 56.7618 9.45814C57.1725 9.65064 57.5062 9.90731 57.7757 10.2538C58.0452 10.5875 58.2505 10.9853 58.3788 11.4345C58.5072 11.8836 58.5842 12.3713 58.5842 12.8718C58.5842 13.3466 58.52 13.7958 58.4045 14.2321C58.2762 14.6685 58.0965 15.0663 57.8527 15.4C57.6088 15.7336 57.3008 16.0031 56.9159 16.2085C56.5308 16.4138 56.0945 16.5165 55.5812 16.5165C55.363 16.5165 55.132 16.4908 54.9138 16.4523C54.6957 16.4138 54.4775 16.3496 54.2722 16.2598C54.0669 16.17 53.8744 16.0545 53.7075 15.9133C53.5279 15.7721 53.3867 15.6053 53.2712 15.4256L53.2455 15.4256L53.2455 18.9035L51.7055 18.9035L51.7055 9.35547L51.6927 9.35547ZM57.0699 12.8461C57.0699 12.5381 57.0314 12.2301 56.9415 11.935C56.8645 11.6398 56.7362 11.3831 56.5694 11.1521C56.4025 10.9211 56.1972 10.7415 55.9662 10.6003C55.7224 10.4591 55.44 10.395 55.132 10.395C54.4904 10.395 54.0027 10.6131 53.669 11.0623C53.3482 11.5115 53.1814 12.1146 53.1814 12.859C53.1814 13.2183 53.2199 13.5391 53.3097 13.8343C53.3995 14.1295 53.515 14.3861 53.6947 14.6043C53.8615 14.8225 54.0669 14.9893 54.3107 15.1176C54.5545 15.246 54.824 15.3101 55.1449 15.3101C55.5042 15.3101 55.7865 15.2331 56.0304 15.092C56.2742 14.9508 56.4667 14.7583 56.6335 14.5401C56.7875 14.3091 56.903 14.0525 56.9672 13.7573C57.0313 13.4493 57.0699 13.1541 57.0699 12.8461ZM59.7777 6.69898L61.3177 6.69898L61.3177 8.14914L59.7777 8.14914L59.7777 6.69898ZM59.7777 9.35548L61.3177 9.35548L61.3177 16.324L59.7777 16.324L59.7777 9.35548ZM62.6908 6.69898L64.2309 6.69898L64.2308 16.324L62.6908 16.324L62.6908 6.69898ZM68.9278 16.5165C68.376 16.5165 67.8755 16.4266 67.4392 16.2341C67.0028 16.0416 66.6435 15.7978 66.3355 15.477C66.0404 15.1561 65.8093 14.7583 65.6553 14.3091C65.5013 13.86 65.4115 13.3595 65.4115 12.8333C65.4115 12.3071 65.4885 11.8195 65.6553 11.3703C65.8093 10.9211 66.0404 10.5361 66.3355 10.2025C66.6307 9.88164 67.0028 9.62498 67.4392 9.44531C67.8755 9.26564 68.376 9.16298 68.9278 9.16298C69.4797 9.16298 69.9802 9.25281 70.4165 9.44531C70.8529 9.62498 71.2122 9.88164 71.5202 10.2025C71.8153 10.5233 72.0463 10.9211 72.2003 11.3703C72.3543 11.8195 72.4442 12.3071 72.4442 12.8333C72.4442 13.3723 72.3672 13.86 72.2003 14.3091C72.0335 14.7583 71.8153 15.1433 71.5202 15.477C71.225 15.7978 70.8529 16.0545 70.4165 16.2341C69.9802 16.4138 69.4925 16.5165 68.9278 16.5165ZM68.9278 15.2973C69.2615 15.2973 69.5695 15.2203 69.8133 15.0791C70.07 14.938 70.2625 14.7455 70.4293 14.5145C70.5962 14.2835 70.7117 14.014 70.7887 13.7316C70.8657 13.4365 70.9042 13.1413 70.9042 12.8333C70.9042 12.5381 70.8657 12.243 70.7887 11.9478C70.7117 11.6526 70.5962 11.396 70.4293 11.165C70.2625 10.934 70.0572 10.7543 69.8134 10.6131C69.5567 10.472 69.2615 10.395 68.9278 10.395C68.5942 10.395 68.2862 10.472 68.0424 10.6131C67.7857 10.7543 67.5932 10.9468 67.4264 11.165C67.2595 11.396 67.144 11.6526 67.067 11.9478C66.99 12.243 66.9515 12.5381 66.9515 12.8333C66.9515 13.1413 66.99 13.4365 67.067 13.7316C67.144 14.0268 67.2595 14.2835 67.4264 14.5145C67.5932 14.7455 67.7985 14.938 68.0424 15.0791C68.299 15.2331 68.5942 15.2973 68.9278 15.2973ZM72.9062 9.35548L74.074 9.35548L74.074 7.25081L75.614 7.25081L75.614 9.34264L77 9.34264L77 10.4848L75.614 10.4848L75.614 14.2065C75.614 14.3733 75.6268 14.5016 75.6397 14.63C75.6525 14.7455 75.691 14.8481 75.7295 14.9251C75.7808 15.0021 75.8578 15.0663 75.9477 15.1048C76.0503 15.1433 76.1787 15.169 76.3583 15.169C76.461 15.169 76.5765 15.169 76.6792 15.1561C76.7818 15.1433 76.8973 15.1305 77 15.1048L77 16.2983C76.8332 16.324 76.6663 16.3368 76.4995 16.3496C76.3327 16.3753 76.1787 16.3753 75.999 16.3753C75.5883 16.3753 75.2675 16.3368 75.0237 16.2598C74.7798 16.1828 74.5873 16.0673 74.4462 15.9261C74.305 15.7721 74.2152 15.5925 74.1639 15.3743C74.1125 15.1561 74.0868 14.8866 74.074 14.6043L74.074 10.4976L72.9062 10.4976L72.9062 9.32981L72.9062 9.35548Z" fill="black"/>
<path d="M18.4415 6.699L11.396 6.699L9.22717 8.06664e-07L7.0455 6.699L-5.84523e-07 6.68617L5.698 10.8313L3.51633 17.5303L9.21433 13.3852L14.9123 17.5303L12.7435 10.8313L18.4415 6.699Z" fill="#00B67A"/>
<path d="M13.2311 12.3456L12.7435 10.8313L9.22714 13.3851L13.2311 12.3456Z" fill="#005128"/>
</svg>
